<svg viewBox="0 0 240 80" xmlns="http://www.w3.org/2000/svg">
  <style>
    .logo-text { 
      font-family: Arial, sans-serif; 
      font-weight: bold;
      fill: #2563EB;
    }
    .tagline {
      font-family: Arial, sans-serif;
      font-size: 12px;
      fill: #64748B;
    }
    .icon-path {
      fill: #2563EB;
    }
  </style>
  
  <!-- Icon -->
  <g transform="translate(10, 15)">
    <path class="icon-path" d="M25,0 C38.8,0 50,11.2 50,25 C50,38.8 38.8,50 25,50 C11.2,50 0,38.8 0,25 C0,11.2 11.2,0 25,0 Z M25,10 C16.7,10 10,16.7 10,25 C10,33.3 16.7,40 25,40 C33.3,40 40,33.3 40,25 C40,16.7 33.3,10 25,10 Z"/>
    <path class="icon-path" d="M22,20 L30,20 L30,30 L22,30 Z M15,15 L35,15 L35,35 L15,35 Z" fill-rule="evenodd"/>
  </g>
  
  <!-- Company Name -->
  <text x="70" y="40" class="logo-text" font-size="28"><?= COMPANY_NAME ?></text>
  
  <!-- Tagline -->
  <text x="70" y="55" class="tagline">Inventory Management System</text>
</svg>